<?xml version="1.0" encoding="UTF-8"?>
<svg version="1.1"
    xmlns="http://www.w3.org/2000/svg" width="721" height="568" viewBox="152 199 721 568">
    <path d="M0,0 L22,0 L27,1 L46,2 L61,4 L77,9 L94,16 L110,25 L121,33 L131,41 L146,55 L158,69 L169,84 L180,103 L186,117 L188,124 L189,132 L189,154 L186,167 L185,167 L184,148 L180,130 L175,118 L167,103 L157,89 L165,106 L169,121 L170,128 L170,157 L166,171 L158,187 L156,188 L158,175 L159,171 L159,160 L156,176 L153,184 L145,200 L138,208 L137,208 L138,200 L138,171 L136,159 L131,144 L125,127 L123,119 L123,152 L121,158 L118,169 L117,169 L115,149 L111,133 L108,126 L101,111 L93,96 L84,80 L81,75 L85,89 L86,94 L86,125 L81,148 L73,164 L71,164 L70,168 L68,171 L66,171 L64,175 L63,170 L66,155 L67,148 L68,147 L68,129 L65,144 L60,157 L52,171 L43,182 L32,193 L18,202 L14,205 L12,204 L18,187 L21,170 L21,151 L18,132 L18,118 L16,118 L16,128 L11,149 L3,168 L-3,178 L-4,178 L-5,166 L-6,165 L-7,167 L-9,180 L-12,190 L-20,189 L-25,188 L-38,188 L-55,193 L-57,195 L-57,198 L-65,204 L-68,205 L-68,197 L-70,197 L-71,189 L-71,179 L-67,174 L-63,171 L-61,171 L-59,167 L-54,166 L-55,173 L-59,181 L-61,186 L-59,183 L-57,183 L-56,176 L-47,157 L-58,163 L-67,169 L-70,169 L-71,167 L-70,147 L-66,131 L-62,120 L-62,118 L-68,131 L-75,157 L-76,163 L-76,187 L-73,200 L-73,204 L-76,203 L-88,186 L-95,172 L-99,159 L-101,148 L-101,124 L-99,110 L-97,100 L-94,91 L-86,73 L-77,57 L-66,43 L-62,41 L-63,39 L-66,42 L-76,46 L-85,52 L-94,59 L-99,64 L-101,64 L-99,58 L-90,46 L-81,36 L-71,27 L-58,18 L-45,11 L-41,11 L-41,9 L-21,3 L-13,1 Z M-61,116 Z M62,174 Z " fill="#207DED" transform="translate(411,280)"/>
    <path d="M0,0 L11,0 L23,3 L26,20 L26,33 L20,32 L18,31 L2,31 L-9,37 L-16,45 L-22,58 L-21,59 L-20,77 L-18,82 L-17,76 L-11,75 L-8,80 L-6,81 L1,81 L5,80 L7,76 L8,73 L8,62 L5,59 L5,53 L6,52 L12,52 L15,55 L17,63 L17,76 L12,86 L3,92 L-11,92 L-7,94 L4,94 L12,91 L14,87 L19,77 L20,73 L20,60 L17,51 L11,44 L9,42 L16,43 L22,46 L28,53 L30,57 L31,63 L35,57 L38,57 L36,64 L33,84 L32,116 L29,128 L23,140 L12,153 L2,163 L-6,170 L-24,184 L-38,193 L-43,195 L-58,194 L-80,188 L-95,182 L-96,179 L-95,177 L-95,164 L-99,157 L-105,152 L-113,149 L-123,149 L-130,152 L-143,152 L-149,131 L-150,127 L-145,129 L-135,133 L-132,133 L-137,129 L-147,116 L-154,104 L-159,91 L-162,82 L-164,73 L-153,80 L-149,84 L-148,74 L-143,66 L-142,66 L-141,83 L-137,93 L-131,100 L-130,103 L-128,104 L-106,104 L-105,100 L-100,94 L-100,90 L-101,87 L-101,75 L-104,72 L-109,76 L-109,74 L-115,70 L-116,63 L-113,60 L-108,60 L-102,65 L-101,62 L-104,57 L-108,53 L-102,54 L-92,60 L-86,67 L-87,60 L-92,52 L-97,47 L-95,43 L-93,43 L-91,39 L-83,28 L-75,12 L-73,7 L-72,7 L-72,29 L-76,48 L-82,64 L-83,66 L-63,57 L-50,48 L-37,36 L-32,29 L-31,31 L-39,48 L-26,38 L-20,33 L-12,23 Z " fill="#F9E4D8" transform="translate(498,427)"/>
    <path d="M0,0 L2,1 L-12,10 L-26,22 L-40,37 L-51,53 L-59,67 L-64,80 L-69,92 L-74,115 L-76,132 L-80,137 L-81,142 L-82,156 L-91,162 L-101,172 L-109,188 L-112,199 L-113,206 L-113,229 L-111,241 L-107,253 L-101,265 L-95,273 L-97,287 L-99,296 L-99,323 L-94,343 L-86,359 L-83,364 L-89,362 L-99,356 L-111,345 L-120,335 L-127,323 L-132,308 L-134,294 L-134,274 L-132,257 L-129,242 L-122,221 L-119,212 L-131,231 L-142,254 L-148,273 L-150,287 L-150,315 L-146,330 L-145,335 L-148,331 L-155,314 L-160,295 L-161,288 L-161,265 L-158,246 L-153,232 L-145,216 L-125,176 L-114,149 L-102,113 L-95,94 L-87,78 L-77,62 L-66,49 L-57,39 L-49,31 L-35,20 L-21,11 Z " fill="#1767E0" transform="translate(313,275)"/>
    <path d="M0,0 L12,0 L18,3 L23,9 L24,11 L24,20 L20,28 L12,33 L8,33 L6,45 L2,61 L14,63 L35,70 L50,77 L47,78 L36,74 L20,70 L11,69 L-23,69 L-40,72 L-50,75 L-62,80 L-77,88 L-93,100 L-103,109 L-112,119 L-122,134 L-132,155 L-138,173 L-142,192 L-143,199 L-160,200 L-167,201 L-167,189 L-163,173 L-158,155 L-149,135 L-140,120 L-130,107 L-123,99 L-115,92 L-108,86 L-98,79 L-84,71 L-69,65 L-50,60 L-30,58 L-19,58 L-8,59 L-7,53 L-2,33 L-2,31 L-7,26 L-10,21 L-10,11 L-6,5 Z " fill="#E0EBF5" transform="translate(416,199)"/>
    <path d="M0,0 L13,0 L22,4 L30,11 L37,22 L41,32 L44,51 L44,71 L39,88 L35,96 L28,103 L21,106 L8,106 L-3,99 L-10,91 L-17,77 L-21,64 L-22,58 L-22,32 L-18,19 L-12,9 L-4,2 Z " fill="#1559A3" transform="translate(231,445)"/>
    <path d="M0,0 L2,0 L9,10 L16,21 L23,36 L27,53 L27,84 L22,107 L14,123 L12,123 L11,127 L9,130 L7,130 L5,134 L4,129 L7,114 L8,107 L9,106 L11,79 L12,76 L9,62 L8,62 L5,79 L2,91 L-6,106 L-10,110 L-13,111 L-15,116 L-17,116 L-19,121 L-25,130 L-35,149 L-40,154 L-38,149 L-31,131 L-28,107 L-28,98 L-36,71 L-40,54 L-50,54 L-56,62 L-58,62 L-60,51 L-60,30 L-57,18 L-56,18 L-55,31 L-52,38 L-50,39 L-37,39 L-28,38 L-24,37 L-20,21 L-17,22 L-10,33 L-1,34 L9,31 L9,24 L4,8 L0,2 Z M3,133 Z " fill="#2A8FF8" transform="translate(470,321)"/>
    <path d="M0,0 L5,1 L16,12 L23,18 L31,29 L31,36 L23,54 L14,74 L13,77 L12,90 L8,96 L-3,109 L-11,119 L-23,128 L-26,130 L-29,144 L-35,147 L-50,147 L-60,144 L-68,138 L-72,132 L-75,121 L-81,110 L-81,102 L-79,97 L-69,100 L-53,106 L-45,109 L-30,109 L-22,104 L-18,99 L-10,80 L-8,79 L-7,89 L-5,89 L-5,74 L-8,69 L-8,67 L-22,67 L-28,62 L-29,56 L-14,55 L-1,55 L7,61 L10,68 L9,61 L7,52 L1,46 L-14,45 L-20,41 L-23,37 L-23,32 L5,32 L15,37 L18,39 L12,31 L9,25 L0,16 L-2,12 L-2,2 Z " fill="#F6D7C4" transform="translate(604,556)"/>
    <path d="M0,0 L9,2 L27,10 L42,19 L58,31 L75,47 L87,61 L98,76 L109,95 L115,109 L117,116 L118,124 L118,146 L115,159 L114,159 L113,140 L109,122 L104,110 L96,95 L86,81 L94,98 L98,113 L99,120 L99,149 L95,163 L91,171 L90,169 L94,155 L94,131 L91,115 L86,100 L78,84 L70,70 L64,62 L64,60 L53,64 L33,72 L33,85 L29,84 L23,72 L17,63 L17,61 L14,60 L13,55 L11,55 L5,46 L3,42 L7,44 L15,51 L18,54 L26,55 L36,50 L39,46 L38,38 L36,38 L32,33 L32,31 L38,32 L43,34 L40,29 L29,19 L8,5 L0,1 Z " fill="#87EEFA" transform="translate(482,288)"/>
    <path d="M0,0 L1,0 L5,17 L6,21 L12,23 L21,28 L29,37 L35,48 L35,51 L24,56 L10,59 L-11,59 L-28,55 L-41,49 L-51,43 L-64,32 L-81,15 L-80,13 L-72,18 L-69,18 L-77,9 L-74,9 L-66,16 L-52,25 L-40,31 L-24,35 L-31,27 L-41,12 L-46,2 L-36,4 L-13,4 L-5,2 Z " fill="#D1A6A0" transform="translate(431,657)"/>
    <path d="M0,0 L4,2 L16,15 L24,23 L32,30 L44,41 L55,50 L64,60 L73,71 L85,84 L90,91 L90,92 L80,91 L63,87 L47,82 L28,76 L25,71 L25,69 L21,68 L16,60 L12,55 L7,50 L-9,35 L-21,24 L-24,22 L-23,19 L-11,11 Z " fill="#ADC7EF" transform="translate(320,661)"/>
    <path d="M0,0 L9,0 L14,3 L16,6 L16,145 L12,150 L-2,150 L-7,144 L-7,6 Z " fill="#A4B8DD" transform="translate(745,417)"/>
    <path d="M0,0 L3,1 L-9,12 L-17,19 L-28,29 L-39,43 L-46,53 L-58,76 L-63,93 L-67,109 L-72,135 L-75,145 L-82,160 L-92,179 L-100,191 L-113,210 L-119,221 L-125,235 L-129,250 L-131,273 L-131,285 L-130,293 L-129,286 L-128,286 L-125,307 L-121,319 L-122,322 L-130,304 L-135,287 L-137,275 L-137,252 L-134,233 L-129,219 L-121,203 L-101,163 L-90,136 L-78,100 L-71,81 L-63,65 L-53,49 L-42,36 L-33,26 L-25,18 L-11,7 Z " fill="#268FFA" transform="translate(289,288)"/>
    <path d="M0,0 L11,0 L16,4 L17,6 L17,133 L12,139 L9,140 L1,140 L-4,136 L-6,132 L-6,7 Z " fill="#1198F9" transform="translate(677,416)"/>
    <path d="M0,0 L4,2 L7,4 L12,21 L20,37 L24,44 L21,28 L20,15 L24,14 L35,25 L42,36 L46,44 L50,59 L50,80 L48,91 L44,101 L38,111 L29,119 L18,124 L12,125 L3,125 L3,123 L12,119 L17,115 L23,106 L27,94 L27,77 L22,64 L13,49 L7,39 L2,25 L0,11 Z " fill="#0E45BE" transform="translate(223,555)"/>
    <path d="M0,0 L3,0 L13,15 L23,33 L29,48 L33,63 L34,71 L34,95 L33,95 L32,80 L29,68 L21,49 L21,47 L19,47 L20,58 L20,85 L16,105 L14,108 L12,95 L12,84 L9,77 L7,66 L3,57 L-10,31 L-14,25 L-16,24 L-14,34 L-12,52 L-12,63 L-15,61 L-21,46 L-31,26 L-28,25 L-29,12 L-20,8 L-4,1 Z " fill="#319EFC" transform="translate(543,348)"/>
    <path d="M0,0 L12,0 L22,3 L32,9 L39,17 L45,27 L51,45 L53,61 L53,79 L48,98 L44,104 L43,105 L32,105 L27,103 L25,101 L25,94 L28,84 L28,53 L25,39 L20,27 L14,18 L9,13 L1,7 L-4,5 L-10,4 L-8,2 Z " fill="#A0E0FA" transform="translate(250,436)"/>
    <path d="M0,0 L2,0 L6,12 L13,37 L15,44 L15,53 L12,77 L5,95 L4,98 L13,82 L20,69 L25,62 L27,62 L28,57 L34,55 L36,51 L43,37 L48,16 L50,5 L52,8 L55,24 L54,25 L53,41 L52,41 L51,34 L48,49 L43,62 L35,76 L26,87 L15,98 L1,107 L-3,110 L-5,109 L1,92 L4,75 L4,56 L1,37 L1,23 L-1,23 L-1,33 L-6,54 L-14,73 L-20,83 L-21,81 L-20,74 L-20,49 L-22,33 L-18,33 L-15,44 L-15,49 L-12,46 L-9,41 L-4,20 Z " fill="#1566DE" transform="translate(428,375)"/>
    <path d="M0,0 L13,3 L24,6 L36,8 L85,8 L88,17 L91,25 L94,37 L94,40 L57,40 L25,36 L13,19 L0,1 Z " fill="#1079F3" transform="translate(389,719)"/>
    <path d="M0,0 L1,0 L2,20 L8,57 L8,82 L7,89 L6,89 L5,79 L4,78 L3,80 L1,93 L-2,103 L-10,102 L-15,101 L-28,101 L-45,106 L-47,108 L-47,111 L-51,113 L-54,112 L-53,107 L-46,99 L-33,84 L-22,67 L-19,61 L-13,48 L-8,32 L-6,27 Z " fill="#0A2251" transform="translate(401,367)"/>
    <path d="M0,0 L1,0 L3,12 L7,24 L13,36 L19,44 L17,58 L15,67 L15,94 L20,114 L28,130 L31,135 L25,133 L16,128 L14,123 L11,119 L8,118 L-1,104 L-4,98 L-7,82 L-8,75 L-8,51 L-4,22 L-1,9 Z " fill="#1362DB" transform="translate(199,504)"/>
    <path d="M0,0 L2,0 L9,10 L16,21 L23,36 L27,53 L27,84 L24,96 L22,94 L21,71 L18,57 L17,48 L-6,51 L-7,60 L-10,65 L-14,64 L-15,60 L-17,60 L-20,54 L-50,54 L-56,62 L-58,62 L-60,51 L-60,30 L-57,18 L-56,18 L-55,31 L-52,38 L-50,39 L-37,39 L-28,38 L-24,37 L-20,21 L-17,22 L-10,33 L-1,34 L9,31 L9,24 L4,8 L0,2 Z " fill="#66D1FC" transform="translate(470,321)"/>
    <path d="M0,0 L20,4 L37,8 L45,14 L60,29 L63,33 L63,68 L57,105 L55,106 L50,82 L39,49 L29,28 L20,16 L11,8 L0,2 Z " fill="#C4DFF9" transform="translate(442,661)"/>
    <path d="M0,0 L9,0 L13,2 L16,7 L16,83 L13,88 L10,90 L1,90 L-4,87 L-6,83 L-6,6 L-2,1 Z " fill="#9AB1D7" transform="translate(781,454)"/>
    <path d="M0,0 L5,5 L9,9 L12,30 L15,42 L23,62 L32,76 L37,83 L32,81 L23,73 L19,72 L23,81 L30,102 L31,110 L24,110 L7,105 L-4,99 L-4,78 L-1,72 L2,61 L3,49 L3,25 L1,4 Z " fill="#1465DB" transform="translate(315,467)"/>
    <path d="M0,0 L5,1 L16,12 L23,18 L31,29 L31,36 L23,54 L14,74 L13,77 L12,90 L8,96 L-3,109 L-11,119 L-19,125 L-21,125 L-21,123 L-19,123 L-17,119 L-12,114 L-10,114 L-8,109 L-2,101 L2,95 L3,90 L4,62 L7,61 L10,68 L9,61 L7,52 L1,46 L-14,45 L-20,41 L-23,37 L-23,32 L5,32 L15,37 L18,39 L12,31 L9,25 L0,16 L-2,12 L-2,2 Z " fill="#F4DACD" transform="translate(604,556)"/>
    <path d="M0,0 L8,0 L14,5 L14,86 L10,91 L8,92 L-1,92 L-6,86 L-6,6 L-1,1 Z " fill="#3CA4F9" transform="translate(711,441)"/>
    <path d="M0,0 L4,4 L8,9 L20,15 L39,15 L50,12 L57,34 L57,38 L45,43 L36,45 L22,45 L9,41 L-1,35 L-8,27 L-7,19 L-1,1 Z " fill="#EBF3FA" transform="translate(527,689)"/>
    <path d="M0,0 L3,1 L11,15 L21,36 L24,42 L26,53 L29,61 L29,71 L30,81 L32,77 L35,61 L35,34 L34,25 L35,23 L37,23 L41,31 L47,47 L49,56 L49,76 L46,87 L41,96 L40,93 L42,83 L43,79 L43,68 L40,84 L37,92 L29,108 L22,116 L21,116 L22,108 L22,79 L20,67 L15,52 L9,35 L7,27 L5,29 L2,9 L0,4 Z " fill="#135CD6" transform="translate(527,372)"/>
    <path d="M0,0 L17,2 L31,5 L36,16 L44,37 L56,59 L68,75 L69,77 L64,76 L46,65 L36,57 L21,42 L11,27 L3,11 Z " fill="#156EE7" transform="translate(326,607)"/>
    <path d="M0,0 L1,0 L1,22 L-3,41 L-9,57 L-10,59 L10,50 L23,41 L36,29 L41,22 L42,24 L34,41 L47,31 L53,26 L61,16 L62,14 L64,14 L64,16 L66,17 L64,21 L72,17 L83,17 L79,19 L69,22 L63,26 L57,33 L53,38 L54,32 L43,41 L34,47 L32,46 L33,43 L19,53 L4,60 L-3,62 L-10,62 L-10,64 L-16,62 L-18,61 L-18,59 L-25,58 L-23,66 L-23,79 L-25,83 L-28,82 L-28,68 L-31,65 L-36,69 L-36,67 L-42,63 L-43,56 L-40,53 L-35,53 L-29,58 L-28,55 L-31,50 L-35,46 L-29,47 L-19,53 L-13,60 L-14,53 L-19,45 L-24,40 L-22,36 L-20,36 L-18,32 L-10,21 L-2,5 Z " fill="#EBBEAA" transform="translate(425,434)"/>
    <path d="M0,0 L3,4 L14,25 L22,39 L28,51 L30,56 L34,66 L37,79 L37,87 L33,87 L32,89 L31,80 L19,78 L8,77 L6,83 L-3,100 L-14,113 L-28,124 L-31,125 L-29,119 L-25,110 L-23,110 L-22,112 L-19,111 L-18,109 L-14,107 L-10,98 L-8,94 L-6,94 L-4,89 L1,78 L6,55 L6,24 L2,7 L0,3 Z " fill="#0C2655" transform="translate(490,350)"/>
    <path d="M0,0 L1,2 L5,4 L12,11 L20,18 L35,32 L35,34 L39,36 L44,42 L47,48 L50,49 L53,55 L47,54 L20,42 L-5,29 L-29,14 L-35,10 L-35,9 L-20,7 L-5,2 Z " fill="#274AB2" transform="translate(295,681)"/>
    <path d="M0,0 L5,2 L8,3 L20,3 L25,1 L31,2 L44,8 L55,12 L65,14 L65,41 L49,41 L39,38 L26,30 L18,23 L9,12 L1,2 Z " fill="#C49091" transform="translate(367,615)"/>
    <path d="M0,0 L2,0 L0,7 L-3,14 L-8,28 L-8,36 L-6,39 L16,47 L34,53 L38,55 L47,55 L50,46 L52,42 L61,44 L54,64 L50,69 L46,71 L37,71 L3,59 L-14,52 L-18,47 L-19,45 L-19,37 L-7,4 Z " fill="#1075F5" transform="translate(525,585)"/>
    <path d="M0,0 L13,0 L22,4 L30,11 L37,22 L41,32 L44,51 L44,71 L39,88 L35,96 L28,103 L21,106 L8,106 L-3,99 L-10,91 L-17,77 L-21,64 L-22,58 L-22,32 L-18,19 L-12,9 L-4,2 Z M2,7 L-4,10 L-11,17 L-15,26 L-16,32 L-17,33 L-18,42 L-18,59 L-12,79 L-6,89 L1,96 L12,100 L21,99 L29,93 L34,86 L38,73 L39,67 L39,51 L36,35 L31,23 L29,20 L27,20 L26,16 L17,9 L12,7 Z " fill="#1E7DEC" transform="translate(231,445)"/>
    <path d="M0,0 L1,0 L2,12 L2,27 L-2,46 L-5,69 L-5,93 L-3,108 L0,117 L6,129 L11,136 L14,136 L19,145 L15,143 L7,136 L-1,128 L-10,114 L-15,101 L-17,93 L-18,83 L-18,63 L-16,46 L-13,31 L-6,10 L-2,2 Z " fill="#1E82F9" transform="translate(197,486)"/>
    <path d="M0,0 L2,1 L-3,6 L-9,14 L-12,15 L-25,33 L-35,51 L-42,69 L-47,85 L-49,95 L-51,118 L-56,115 L-57,95 L-58,93 L-58,80 L-56,71 L-53,56 L-46,37 L-42,30 L-39,25 L-35,24 L-28,17 L-15,8 L-6,4 L-1,1 Z " fill="#0B38B0" transform="translate(348,318)"/>
    <path d="M0,0 L9,0 L14,3 L16,5 L16,55 L13,60 L11,61 L0,61 L-5,58 L-7,54 L-7,7 L-2,1 Z " fill="#97ADD6" transform="translate(818,473)"/>
    <path d="M0,0 L3,0 L0,9 L-7,23 L-14,29 L-21,32 L-33,32 L-41,29 L-51,21 L-57,13 L-60,9 L-59,5 L-53,6 L-28,6 L-11,3 Z " fill="#F98E93" transform="translate(475,557)"/>
    <path d="M0,0 L12,0 L18,3 L23,9 L24,11 L24,20 L20,28 L12,33 L8,33 L6,45 L2,61 L-11,60 L-8,59 L-7,53 L-2,33 L-2,31 L-7,26 L-10,21 L-10,11 L-6,5 Z " fill="#8BEAFB" transform="translate(416,199)"/>
    <path d="M0,0 L4,0 L10,9 L20,18 L35,26 L50,31 L72,35 L89,35 L94,31 L105,31 L112,37 L113,39 L113,45 L109,51 L104,53 L95,53 L89,49 L87,46 L87,43 L70,42 L50,38 L36,33 L20,25 L11,18 L3,10 L-1,4 Z " fill="#6BDAF9" transform="translate(280,555)"/>
    <path d="M0,0 L2,0 L5,12 L7,25 L7,53 L1,71 L-6,82 L-13,88 L-11,83 L-7,68 L-7,46 L-10,30 L-13,17 L-13,11 L-5,5 Z " fill="#1870EA" transform="translate(558,486)"/>
    <path d="M0,0 L9,0 L15,4 L16,6 L16,42 L11,46 L3,46 L-3,44 L-7,40 L-7,7 L-2,1 Z " fill="#31ABFB" transform="translate(640,437)"/>
    <path d="M0,0 L4,1 L20,6 L32,11 L40,15 L44,20 L45,23 L45,30 L38,51 L35,58 L32,68 L27,78 L20,74 L22,65 L33,33 L33,25 L30,22 L0,11 Z " fill="#BBF2F8" transform="translate(586,477)"/>
    <path d="M0,0 L11,0 L23,3 L26,20 L26,33 L20,32 L18,31 L2,31 L-9,37 L-16,45 L-19,51 L-20,48 L-18,42 L-12,34 L-6,29 L2,26 L6,25 L-1,25 L-7,28 L-9,28 L-8,24 L-10,20 Z " fill="#FCE7D6" transform="translate(498,427)"/>
    <path d="M0,0 L10,0 L18,2 L18,21 L14,35 L6,34 L1,33 L-12,33 L-25,37 L-27,36 L-21,31 L-9,15 Z " fill="#FCE7D6" transform="translate(385,435)"/>
    <path d="M0,0 L19,0 L26,2 L26,3 L8,6 L0,9 L-13,15 L-25,22 L-38,33 L-48,43 L-60,60 L-69,76 L-75,92 L-77,94 L-76,87 L-71,72 L-66,60 L-59,46 L-48,30 L-35,17 L-25,10 L-11,3 Z " fill="#0B41A0" transform="translate(411,292)"/>
    <path d="M0,0 L10,3 L26,9 L29,11 L25,17 L24,21 L24,48 L19,47 L11,41 L7,35 L4,24 L-2,13 L-2,5 Z " fill="#E8B9AB" transform="translate(525,653)"/>
    <path d="M0,0 L4,4 L8,9 L21,16 L22,44 L11,42 L0,36 L-8,27 L-7,19 L-1,1 Z " fill="#98C1F6" transform="translate(527,689)"/>
    <path d="M0,0 L20,4 L37,8 L45,14 L60,29 L61,32 L59,32 L59,30 L43,30 L38,33 L36,33 L35,38 L32,34 L25,22 L14,10 L0,2 Z " fill="#95BDF4" transform="translate(442,661)"/>
    <path d="M0,0 L13,0 L22,4 L30,11 L37,22 L41,32 L43,45 L43,53 L41,58 L39,58 L37,43 L32,27 L29,21 L27,20 L24,15 L15,9 L12,8 L2,8 L-4,11 L-11,19 L-14,26 L-16,26 L-18,39 L-21,38 L-21,29 L-18,19 L-12,9 L-4,2 Z " fill="#86EDFA" transform="translate(231,445)"/>
    <path d="M0,0 L2,0 L1,11 L-1,20 L-1,47 L4,67 L12,83 L15,88 L9,86 L0,81 L-2,76 L-6,67 L-10,51 L-10,26 L-4,6 Z " fill="#0B3CBA" transform="translate(215,551)"/>
    <path d="M0,0 L9,3 L15,5 L22,30 L29,45 L37,59 L37,62 L27,54 L19,46 L10,32 L5,22 L0,3 Z " fill="#176CDE" transform="translate(310,601)"/>
    <path d="M0,0 L5,1 L16,12 L23,18 L28,25 L26,43 L22,45 L16,37 L11,29 L8,24 L0,16 L-2,12 L-2,2 Z " fill="#F6DACB" transform="translate(604,556)"/>
    <path d="M0,0 L1,0 L1,22 L-3,41 L-9,57 L-12,58 L-18,46 L-22,41 L-24,40 L-22,36 L-20,36 L-18,32 L-10,21 L-2,5 Z " fill="#F9E1CF" transform="translate(425,434)"/>
    <path d="M0,0 L2,0 L4,3 L4,10 L-4,28 L-13,48 L-14,51 L-15,64 L-19,70 L-30,83 L-38,93 L-46,99 L-48,99 L-48,97 L-46,97 L-44,93 L-39,88 L-37,88 L-35,83 L-29,75 L-25,69 L-24,64 L-23,36 L-20,35 L-17,42 L-16,37 L-9,35 L-8,30 L-10,29 L-8,16 L-5,18 L-2,17 Z " fill="#F4ECE6" transform="translate(631,582)"/>
    <path d="M0,0 L6,0 L9,3 L11,11 L11,24 L6,34 L-3,40 L-13,40 L-19,38 L-24,32 L-23,24 L-17,23 L-14,28 L-12,29 L-5,29 L-1,28 L1,24 L2,21 L2,10 L-1,7 L-1,1 Z " fill="#67EFF6" transform="translate(504,479)"/>
    <path d="M0,0 Z M-1,1 L0,4 L-5,18 L-8,31 L-9,51 L-9,53 L2,47 L11,41 L14,41 L13,46 L5,62 L4,67 L2,67 L0,73 L-2,69 L0,68 L4,59 L7,50 L1,53 L-4,58 L-9,63 L-9,80 L-11,81 L-13,84 L-16,71 L-16,47 L-12,29 L-6,10 Z " fill="#061F51" transform="translate(350,396)"/>
    <path d="M0,0 L1,0 L0,9 L-5,26 L-8,36 L-10,41 L-12,37 L-14,30 L-14,28 L-28,25 L-43,19 L-45,17 L-43,13 L-25,15 L-11,15 L-7,14 L-5,9 Z " fill="#4AACFC" transform="translate(400,344)"/>
    <path d="M0,0 L3,3 L6,11 L9,12 L9,16 L13,17 L13,19 L17,20 L17,24 L20,26 L16,26 L14,38 L10,54 L-3,53 L0,52 L1,46 L6,26 L6,24 L1,19 L-2,14 L-2,4 Z " fill="#30A1F7" transform="translate(408,206)"/>
    <path d="M0,0 L6,0 L16,5 L23,11 L30,21 L35,32 L38,44 L39,49 L39,80 L36,88 L33,88 L31,91 L32,84 L34,76 L34,56 L31,37 L25,23 L18,14 L10,8 L4,6 L-6,5 L-6,4 L2,3 Z " fill="#0D358C" transform="translate(240,440)"/>
    <path d="M0,0 L15,0 L17,1 L16,17 L-9,17 L-15,18 L-15,6 L-12,3 Z " fill="#14B6FB" transform="translate(256,409)"/>
    <path d="M0,0 L9,0 L19,2 L24,13 L25,21 L22,20 L20,16 L22,22 L29,38 L38,53 L35,53 L27,44 L17,29 L11,18 L3,3 L3,1 Z " fill="#2797FC" transform="translate(338,610)"/>
    <path d="M0,0 L2,4 L4,29 L7,44 L13,59 L22,76 L27,83 L30,83 L35,92 L31,90 L23,83 L15,75 L6,61 L1,48 L-1,40 L-2,30 L-2,10 Z " fill="#21A3F8" transform="translate(181,539)"/>
    <path d="M0,0 L9,0 L15,5 L16,7 L16,18 L12,23 L10,24 L-1,24 L-6,19 L-6,6 L-2,1 Z " fill="#899FCD" transform="translate(857,492)"/>
    <path d="M0,0 L3,0 L0,9 L-7,23 L-14,29 L-16,28 L-11,23 L-10,14 L-13,11 L-37,11 L-47,12 L-50,14 L-51,19 L-56,15 L-60,9 L-59,5 L-53,6 L-28,6 L-11,3 Z " fill="#1E2950" transform="translate(475,557)"/>
    <path d="M0,0 L12,0 L22,3 L32,9 L32,12 L25,18 L22,18 L21,22 L17,22 L11,14 L1,7 L-4,5 L-10,4 L-8,2 Z " fill="#3EDAF6" transform="translate(250,436)"/>
    <path d="M0,0 L2,3 L9,12 L16,19 L27,26 L38,31 L55,37 L81,41 L89,42 L89,45 L72,45 L56,42 L39,37 L23,29 L9,19 L0,9 L-3,4 L-2,1 Z " fill="#1354D9" transform="translate(278,556)"/>
    <path d="M0,0 L5,4 L9,9 L23,20 L34,26 L33,21 L46,25 L60,27 L59,29 L54,31 L48,32 L25,32 L17,30 L21,29 L24,30 L24,26 L14,23 L7,17 L0,2 Z " fill="#0C2351" transform="translate(370,630)"/>
    <path d="M0,0 L10,0 L10,1 L5,1 L3,6 L-6,20 L-9,25 L3,25 L12,29 L15,32 L14,35 L6,34 L1,33 L-12,33 L-25,37 L-27,36 L-21,31 L-9,15 Z " fill="#E3AF9B" transform="translate(385,435)"/>
    <path d="M0,0 L2,1 L6,24 L6,39 L3,51 L-6,61 L-15,66 L-17,65 L-11,57 L-4,44 L-1,32 Z " fill="#0835B0" transform="translate(540,514)"/>
    <path d="M0,0 L7,1 L13,4 L19,11 L20,13 L21,30 L16,42 L13,43 L11,49 L4,48 L6,44 L10,35 L11,31 L11,18 L8,9 L2,2 Z " fill="#F8F8F9" transform="translate(507,469)"/>
    <path d="M0,0 L4,2 L12,8 L13,10 L13,18 L11,26 L8,32 L6,34 L-2,36 L-9,35 L-3,27 L0,19 Z " fill="#FAFAFB" transform="translate(401,494)"/>
    <path d="M0,0 L1,0 L1,14 L-4,27 L-12,38 L-21,48 L-28,55 L-36,62 L-54,76 L-63,82 L-66,82 L-66,80 L-56,73 L-50,68 L-48,68 L-47,65 L-33,54 L-21,42 L-17,36 L-15,36 L-13,30 L-8,22 L-3,11 Z " fill="#F4F3F4" transform="translate(528,535)"/>
    <path d="M0,0 L3,0 L5,6 L7,19 L7,47 L1,65 L-3,69 L-4,66 L-2,56 L-1,55 L0,48 L0,19 L-1,4 Z " fill="#59DDF8" transform="translate(558,492)"/>
    <path d="M0,0 L4,2 L8,6 L16,6 L23,2 L28,3 L29,9 L24,15 L17,18 L8,18 L0,13 L-4,7 L-4,2 Z " fill="#6AE7F3" transform="translate(366,512)"/>
    <path d="M0,0 L6,0 L7,4 L3,14 L-3,29 L-6,39 L-11,34 L-14,31 L-11,21 L-5,5 Z " fill="#F0CABB" transform="translate(634,534)"/>
    <path d="M0,0 L4,4 L4,18 L6,20 L3,26 L-1,30 L-2,33 L-6,34 L-24,34 L-28,31 L-30,27 L-36,18 L-36,16 L-34,16 L-34,8 L-28,6 L-26,14 L-29,16 L-32,16 L-30,23 L-26,28 L-20,31 L-11,31 L-3,27 L0,23 L-1,17 L-7,17 L-5,12 L-4,4 Z " fill="#154374" transform="translate(394,498)"/>
    <path d="M0,0 L11,0 L18,6 L18,13 L1,13 L-14,10 L-21,8 L-21,6 L-25,5 L-5,4 Z " fill="#A7F2FA" transform="translate(374,586)"/>
    <path d="M0,0 L3,3 L10,16 L13,24 L15,29 L15,33 L-4,30 L-2,14 Z " fill="#E9BAA8" transform="translate(504,392)"/>
    <path d="M0,0 L2,0 L2,25 L-1,44 L-3,48 L-4,48 L-7,27 L-10,17 L-9,13 L-1,2 Z " fill="#1165D9" transform="translate(576,464)"/>
    <path d="M0,0 L2,0 L1,7 L-3,15 L-5,20 L-6,21 L-6,28 L-8,33 L-4,32 L-10,39 L-12,39 L-12,31 L-14,31 L-15,23 L-15,13 L-11,8 L-7,5 L-5,5 L-3,1 Z " fill="#3E4F7B" transform="translate(355,446)"/>
    <path d="M0,0 L24,0 L28,4 L27,13 L25,11 L23,6 L21,5 L6,5 L-2,8 L-5,11 L-5,17 L-9,15 L-15,10 L-13,3 L-10,1 Z " fill="#D45B6A" transform="translate(438,567)"/>
    <path d="M0,0 L1,0 L1,22 L-3,41 L-5,40 L-3,24 L-8,29 L-12,34 L-18,35 L-18,38 L-16,38 L-16,40 L-21,42 L-24,40 L-22,36 L-20,36 L-18,32 L-10,21 L-2,5 Z " fill="#EBBBA6" transform="translate(425,434)"/>
    <path d="M0,0 L1,3 L-3,15 L-3,18 L-1,19 L-1,24 L-6,24 L-7,25 L-7,35 L-5,40 L-7,44 L-6,48 L-7,51 L-16,51 L-15,45 L-14,38 L-13,34 L-14,33 L-13,25 L-9,18 L-5,14 L-1,2 Z " fill="#0E2F5E" transform="translate(610,533)"/>
    <path d="M0,0 L3,1 L5,6 L5,18 L3,30 L-3,29 L-9,24 L-8,19 L-1,3 Z " fill="#EECCBE" transform="translate(536,439)"/>
    <path d="M0,0 L5,0 L11,5 L14,4 L17,13 L17,26 L15,30 L12,29 L12,15 L9,12 L4,16 L4,14 L-2,10 L-3,3 Z " fill="#132C5C" transform="translate(385,487)"/>
    <path d="M0,0 L12,0 L18,6 L20,15 L21,17 L21,23 L19,22 L16,15 L9,10 L-10,10 L-10,5 L-8,5 L-8,3 L0,4 L-1,3 Z " fill="#133163" transform="translate(594,602)"/>
    <path d="M0,0 L5,5 L12,23 L16,38 L16,41 L9,41 L6,32 L0,5 Z " fill="#2DB3F8" transform="translate(330,536)"/>
    <path d="M0,0 L8,0 L14,4 L14,10 L9,17 L1,17 L-2,14 L-3,5 Z " fill="#3EE9F4" transform="translate(579,527)"/>
    <path d="M0,0 L6,0 L9,3 L11,11 L11,24 L9,29 L8,27 L2,26 L-1,26 L2,21 L2,10 L-1,7 L-1,1 Z " fill="#135F99" transform="translate(504,479)"/>
    <path d="M0,0 L2,0 L0,26 L0,38 L1,46 L2,39 L3,39 L6,60 L10,72 L9,75 L1,57 L-4,40 L-5,30 L-4,29 L-2,6 Z " fill="#1780ED" transform="translate(158,535)"/>
    <path d="M0,0 L4,0 L4,2 L-1,6 L2,8 L-4,11 L-11,19 L-14,26 L-16,26 L-18,39 L-21,38 L-21,29 L-18,19 L-12,9 L-4,2 Z " fill="#69E0F6" transform="translate(231,445)"/>
    <path d="M0,0 L6,1 L31,1 L38,0 L47,0 L44,4 L12,7 L9,9 L8,14 L3,10 L-1,4 Z " fill="#12254F" transform="translate(416,562)"/>
    <path d="M0,0 L2,3 L4,14 L4,45 L1,53 L-2,53 L-4,56 L-3,49 L-1,41 L-1,21 L-2,8 L0,7 Z " fill="#113696" transform="translate(275,475)"/>
    <path d="M0,0 L1,0 L3,21 L8,41 L15,57 L17,62 L13,62 L7,52 L0,35 L0,24 L-1,22 Z " fill="#1E98F8" transform="translate(313,409)"/>
    <path d="M0,0 L1,0 L1,6 L-3,12 L-8,14 L-17,14 L-23,10 L-25,7 L-25,4 L-33,4 L-33,3 L-20,3 L-17,4 L0,5 Z " fill="#59BCF9" transform="translate(392,594)"/>
    <path d="M0,0 L6,1 L10,6 L10,13 L6,18 L0,18 L-4,13 L-4,4 Z " fill="#F5F8FA" transform="translate(247,491)"/>
    <path d="M0,0 L6,1 L10,6 L10,13 L6,18 L-1,17 L-4,12 L-4,4 Z " fill="#F6F8FB" transform="translate(224,493)"/>
    <path d="M0,0 L2,3 L4,14 L4,27 L-5,26 L-9,25 L-6,16 Z " fill="#DCA492" transform="translate(398,405)"/>
    <path d="M0,0 L5,4 L9,9 L23,20 L34,26 L34,27 L24,26 L14,23 L7,17 L0,2 Z " fill="#0E6BDD" transform="translate(370,630)"/>
    <path d="M0,0 Z M-1,1 L0,4 L-5,18 L-8,31 L-9,51 L-9,53 L-7,54 L-9,57 L-11,57 L-11,42 L-13,43 L-14,49 L-15,71 L-16,71 L-16,47 L-12,29 L-6,10 Z " fill="#0B3E9A" transform="translate(350,396)"/>
    <path d="M0,0 L3,1 L-9,12 L-15,17 L-19,18 L-31,29 L-33,31 L-36,31 L-38,35 L-43,40 L-45,39 L-31,24 L-18,12 L-2,1 Z " fill="#2F9FF3" transform="translate(289,288)"/>
    <path d="M0,0 L6,0 L3,3 L-6,9 L-14,18 L-21,32 L-23,37 L-24,34 L-19,17 L-14,8 L-7,2 Z " fill="#104DAF" transform="translate(433,299)"/>
    <path d="M0,0 L4,0 L0,20 L-2,43 L-4,44 L-5,42 L-5,19 L-3,5 Z " fill="#1A9EF4" transform="translate(157,521)"/>
    <path d="M0,0 L1,0 L1,26 L2,36 L0,36 L-1,52 L0,52 L-1,59 L-2,59 L-4,48 L-4,24 L-2,10 Z " fill="#1482E9" transform="translate(314,380)"/>
    <path d="M0,0 L4,2 L11,9 L16,19 L20,24 L16,22 L8,17 L-4,15 L0,10 L-1,8 L-2,3 L0,3 Z " fill="#152955" transform="translate(604,573)"/>
    <path d="M0,0 L2,0 L2,2 L4,3 L2,7 L10,3 L21,3 L17,5 L7,8 L1,12 L-5,19 L-9,24 L-8,18 L-11,19 L-8,10 L-1,2 Z M-10,13 Z M-11,14 Z M-13,15 L-11,16 Z " fill="#BD9D9A" transform="translate(487,448)"/>
    <path d="M0,0 L20,0 L25,3 L43,6 L43,8 L26,8 L11,5 L4,3 L4,1 Z " fill="#80E2FC" transform="translate(349,591)"/>
    <path d="M0,0 L6,1 L20,5 L24,8 L24,10 L31,9 L36,11 L43,12 L43,15 L56,16 L56,17 L48,17 L28,13 L14,8 L0,1 Z " fill="#50B8FB" transform="translate(302,580)"/>
    <path d="M0,0 L4,0 L10,9 L19,17 L21,22 L22,25 L18,23 L12,19 L3,10 L-1,4 Z " fill="#3DBBF7" transform="translate(280,555)"/>
    <path d="M0,0 L5,4 L8,11 L12,24 L16,32 L17,39 L15,40 L7,24 L4,17 L0,3 Z " fill="#F1C4B3" transform="translate(334,500)"/>
    <path d="M0,0 L1,0 L2,8 L12,5 L25,5 L31,4 L31,11 L6,11 L0,12 Z " fill="#087FEF" transform="translate(241,415)"/>
    <path d="M0,0 L2,0 L2,25 L0,38 L-2,40 L-3,19 L-3,5 Z " fill="#32B6F3" transform="translate(576,464)"/>
    <path d="M0,0 L15,0 L17,1 L16,6 L-12,6 L-10,5 L-10,3 L-6,1 Z " fill="#30D5F1" transform="translate(256,409)"/>
    <path d="M0,0 L1,0 L1,20 L-3,33 L-5,30 L-7,31 L-6,22 L-4,7 L-2,6 Z " fill="#2F9CF3" transform="translate(274,496)"/>
    <path d="M0,0 L3,3 L6,6 L7,4 L16,25 L19,30 L18,34 L17,30 L13,30 L5,14 L0,3 Z " fill="#187DEC" transform="translate(357,625)"/>
    <path d="M0,0 L2,3 L0,7 L-1,16 L-1,40 L-4,41 L-6,32 L-6,6 L-5,6 L-5,12 L-3,12 Z " fill="#2FABF0" transform="translate(215,471)"/>
    <path d="M0,0 L21,0 L28,3 L28,6 L21,5 L16,4 L3,4 L-10,8 L-12,7 L-6,2 Z " fill="#ECCFBC" transform="translate(370,464)"/>
    <path d="M0,0 L6,2 L10,12 L15,18 L15,20 L10,21 L3,14 L0,9 Z " fill="#F2F3F4" transform="translate(351,508)"/>
    <path d="M0,0 L5,1 L5,2 L11,3 L11,4 L0,5 L-11,11 L-18,19 L-21,25 L-22,22 L-20,16 L-14,8 L-8,3 Z " fill="#EDDCCD" transform="translate(500,453)"/>
    <path d="M0,0 L3,1 L0,13 L-4,25 L-6,25 L-7,17 L-7,7 L-3,2 Z " fill="#E4B7AD" transform="translate(347,452)"/>
    <path d="M0,0 L1,0 L2,9 L16,17 L28,23 L24,24 L6,18 L-2,14 Z " fill="#E5BCAC" transform="translate(404,594)"/>
    <path d="M0,0 L4,4 L4,16 L2,21 L-1,17 L-7,17 L-5,12 L-4,4 Z " fill="#0E639D" transform="translate(394,498)"/>
    <path d="M0,0 L11,0 L11,1 L4,1 L2,9 L-4,21 L-6,23 L-9,23 L-10,20 Z " fill="#EDBCA9" transform="translate(498,427)"/>
    <path d="M0,0 L6,1 L16,7 L22,14 L23,12 L25,13 L25,18 L19,16 L17,15 L17,13 L9,13 L4,4 Z " fill="#97B5D9" transform="translate(390,480)"/>
    <path d="M0,0 L1,0 L0,7 L-4,12 L-11,13 L-17,10 L-16,7 Z " fill="#F8D2C5" transform="translate(465,535)"/>
    <path d="M0,0 L2,1 L-12,10 L-26,22 L-36,33 L-37,30 L-29,20 L-22,14 L-23,12 Z " fill="#1C76D8" transform="translate(313,275)"/>
    <path d="M0,0 L3,1 L1,5 L-14,17 L-27,26 L-30,26 L-30,24 L-20,17 L-14,12 L-12,12 L-11,9 Z " fill="#F1EEEB" transform="translate(492,591)"/>
    <path d="M0,0 L1,0 L2,6 L-2,12 L-3,16 L-12,19 L-23,19 L-28,16 L-28,15 L-13,15 L-5,10 Z " fill="#213B65" transform="translate(514,503)"/>
    <path d="M0,0 L5,1 L4,7 L0,16 L-6,31 L-7,28 L-3,8 Z " fill="#F6E8DF" transform="translate(636,534)"/>
    <path d="M0,0 L5,1 L8,18 L8,31 L2,30 L5,29 L3,14 L0,3 Z " fill="#E1AD9D" transform="translate(516,429)"/>
    <path d="M0,0 L1,0 L2,10 L4,11 L-5,22 L-8,21 L-9,24 L-11,23 L-6,13 L-1,1 Z " fill="#E4AFA1" transform="translate(595,635)"/>
    <path d="M0,0 L5,0 L8,3 L8,10 L6,12 L0,12 L-3,8 L-3,3 Z " fill="#F1F3F6" transform="translate(385,487)"/>
    <path d="M0,0 Z M-1,1 L-1,4 L-4,9 L-14,17 L-19,20 L-21,19 L-20,16 L-22,15 L-17,13 L-5,3 Z " fill="#F0C4B3" transform="translate(478,461)"/>
    <path d="M0,0 L3,0 L3,19 L0,29 L-4,27 L-1,26 L-1,1 Z " fill="#EBC3AE" transform="translate(400,437)"/>
    <path d="M0,0 L1,0 L3,13 L3,21 L1,26 L-1,26 L-3,11 L-4,5 L-1,3 Z " fill="#62D8FA" transform="translate(271,477)"/>
    <path d="M0,0 L1,4 L3,4 L2,7 L2,5 L-9,9 L-28,9 L-37,5 L-36,2 L-31,3 L-21,6 L-6,6 L-1,4 Z " fill="#304374" transform="translate(575,696)"/>
    <path d="M0,0 L3,0 L6,5 L8,7 L4,8 L4,16 L0,14 L-4,8 L-3,1 Z " fill="#3FD1EB" transform="translate(484,502)"/>
    <path d="M0,0 L2,1 L8,16 L12,23 L11,26 L8,25 L2,15 L-1,8 Z " fill="#1BA6F9" transform="translate(318,446)"/>
    <path d="M0,0 L18,0 L24,3 L27,6 L25,9 L25,6 L18,4 L-3,4 L-8,5 L-7,2 Z " fill="#A47B7F" transform="translate(373,461)"/>
    <path d="M0,0 L7,1 L13,4 L19,11 L18,13 L9,11 L5,5 Z " fill="#98B8E2" transform="translate(507,469)"/>
    <path d="M0,0 L3,1 L3,14 L-6,13 L-5,9 L-1,1 Z " fill="#EEBAA8" transform="translate(399,418)"/>
    <path d="M0,0 L3,4 L4,6 L4,13 L0,27 L-4,35 L-5,33 L-1,19 Z " fill="#5CD0F1" transform="translate(577,424)"/>
    <path d="M0,0 L6,0 L16,5 L18,9 L12,9 L4,6 L-6,5 L-6,4 L2,3 Z " fill="#0F3476" transform="translate(240,440)"/>
    <path d="M0,0 L2,0 L2,2 L9,3 L17,5 L22,6 L20,8 L17,9 L8,9 L2,5 Z " fill="#3998F5" transform="translate(367,599)"/>
    <path d="M0,0 L3,0 L2,5 L-6,21 L-7,26 L-9,26 L-11,32 L-13,28 L-11,27 L-7,18 L-5,14 L-5,8 L-2,5 L-5,3 Z " fill="#062C7B" transform="translate(361,437)"/>
    <path d="M0,0 L1,0 L1,13 L-1,25 L-3,31 L-5,28 L-7,28 L-4,18 L-1,2 Z " fill="#052368" transform="translate(570,438)"/>
    <path d="M0,0 L5,5 L6,9 L5,12 L-4,12 L-3,6 Z " fill="#33BEF7" transform="translate(598,572)"/>
    <path d="M0,0 L2,0 L3,5 L3,18 L0,26 L-1,26 L-1,6 Z " fill="#10234E" transform="translate(516,482)"/>
    <path d="M0,0 L1,0 L1,23 L-4,28 L-6,28 L-2,11 Z " fill="#0A3276" transform="translate(479,404)"/>
    <path d="M0,0 L12,0 L24,6 L28,11 L25,11 L14,5 L8,3 L0,2 Z " fill="#1559BB" transform="translate(449,297)"/>
    <path d="M0,0 L10,3 L10,11 L5,12 L1,8 Z " fill="#D9EBF9" transform="translate(517,479)"/>
    <path d="M0,0 L1,0 L1,26 L2,36 L0,36 L-1,30 L-2,30 L-3,14 Z " fill="#146BDA" transform="translate(314,380)"/>
    <path d="M0,0 L2,0 L7,11 L10,22 L9,26 L9,23 L5,24 L6,17 L4,17 Z " fill="#1975BF" transform="translate(259,466)"/>
    <path d="M0,0 L3,0 L5,6 L6,17 L4,17 L3,12 L1,19 L0,19 L-1,4 Z " fill="#2DB1F4" transform="translate(558,492)"/>
    <path d="M0,0 L6,0 L11,11 L12,19 L9,18 L3,4 L3,1 Z " fill="#20A1F5" transform="translate(351,612)"/>
    <path d="M0,0 L5,1 L6,7 L3,10 L0,7 L-8,7 L-13,6 L-13,5 L-5,3 Z " fill="#51E7F5" transform="translate(389,514)"/>
    <path d="M0,0 L2,0 L0,4 L-10,14 L-13,14 L-15,18 L-20,23 L-22,22 L-8,7 Z " fill="#229BF1" transform="translate(266,305)"/>
    <path d="M0,0 L6,2 L22,10 L30,12 L28,14 L24,13 L4,7 Z " fill="#5BCFF4" transform="translate(298,573)"/>
    <path d="M0,0 L5,0 L7,3 L6,12 L4,10 L2,5 L0,4 L-14,3 L-13,1 Z " fill="#E1626D" transform="translate(459,568)"/>
    <path d="M0,0 L1,4 L0,8 L1,10 L-5,18 L-10,22 L-8,17 L-4,5 L-1,5 Z " fill="#23A9EB" transform="translate(555,552)"/>
    <path d="M0,0 L4,0 L0,20 L-1,29 L-2,29 L-2,2 Z " fill="#24A5FD" transform="translate(157,521)"/>
    <path d="M0,0 L1,0 L5,15 L5,22 L3,22 L-2,10 L-2,4 L0,4 Z " fill="#1F95F0" transform="translate(214,507)"/>
    <path d="M0,0 L5,1 L4,6 L1,11 L-3,15 L1,16 L-6,18 L-3,8 Z M2,2 Z " fill="#182B59" transform="translate(421,475)"/>
    <path d="M0,0 L1,0 L2,7 L3,8 L3,19 L1,24 L-2,25 L-1,9 Z " fill="#05184B" transform="translate(404,438)"/>
    <path d="M0,0 L2,0 L-1,13 L-6,22 L-7,19 L-5,9 L-3,1 Z " fill="#0868D5" transform="translate(574,446)"/>
    <path d="M0,0 L2,0 L-1,34 L-2,34 L-2,6 Z " fill="#1D78F6" transform="translate(158,535)"/>
    <path d="M0,0 L1,0 L1,17 L-3,16 L-4,15 L-4,6 Z " fill="#CAD5E4" transform="translate(355,493)"/>
    <path d="M0,0 L6,0 L8,2 L7,7 L5,9 L0,8 L-1,7 L-1,1 Z " fill="#E3E8F1" transform="translate(504,479)"/>
    <path d="M0,0 L0,3 L-7,4 L-18,4 L-26,6 L-28,6 L-29,9 L-29,3 L-28,2 Z " fill="#0B99FD" transform="translate(271,417)"/>
    <path d="M0,0 L2,4 L2,7 L-3,8 L-3,15 L-6,12 L-7,5 L-3,1 Z " fill="#135C95" transform="translate(484,495)"/>
    <path d="M0,0 L3,4 L4,9 L0,18 L-3,21 L-4,18 L-2,8 L-1,7 Z " fill="#4CD4FA" transform="translate(558,540)"/>
    <path d="M0,0 L1,0 L1,20 L-1,20 L-2,15 L-4,19 L-4,7 L-2,6 Z " fill="#3CB3F4" transform="translate(274,496)"/>
    <path d="M0,0 L5,1 L10,8 L13,8 L18,17 L14,15 L6,8 L0,2 Z " fill="#1A94F7" transform="translate(198,614)"/>
    <path d="M0,0 L5,5 L8,14 L5,14 L5,23 L4,23 L0,5 Z " fill="#2592F4" transform="translate(330,536)"/>
</svg>
